<svg width="28" height="28" viewBox="0 0 28 28" xmlns="http://www.w3.org/2000/svg">
<path fill-rule="evenodd" clip-rule="evenodd" d="M15.1667 24.5C15.1667 25.1452 15.6882 25.6667 16.3333 25.6667H19.8333C21.0712 25.6667 22.2577 25.1755 23.1327 24.3005C24.0077 23.4255 24.5 22.2379 24.5 21C24.5 20.3304 24.5 19.8334 24.5 19.8334C24.5 19.1894 23.9773 18.6667 23.3333 18.6667H16.3333C15.6882 18.6667 15.1667 19.1894 15.1667 19.8334V24.5ZM11.6667 25.6667C12.3107 25.6667 12.8333 25.1452 12.8333 24.5V12.8334C12.8333 12.1894 12.3107 11.6667 11.6667 11.6667H4.66667C4.0215 11.6667 3.5 12.1894 3.5 12.8334V21C3.5 22.2379 3.99116 23.4255 4.86616 24.3005C5.74116 25.1755 6.92883 25.6667 8.16667 25.6667H11.6667ZM22.1667 21H17.5V23.3334H19.8333C20.4517 23.3334 21.0455 23.0884 21.483 22.6509C21.9205 22.2134 22.1667 21.6195 22.1667 21ZM10.5 23.3334V14H5.83333V21C5.83333 21.6195 6.07833 22.2134 6.517 22.6509C6.9545 23.0884 7.54717 23.3334 8.16667 23.3334H10.5ZM16.3333 2.33337C15.6882 2.33337 15.1667 2.85604 15.1667 3.50004V15.1667C15.1667 15.8119 15.6882 16.3334 16.3333 16.3334H23.3333C23.9773 16.3334 24.5 15.8119 24.5 15.1667V7.00004C24.5 5.76337 24.0077 4.5757 23.1327 3.7007C22.2577 2.8257 21.0712 2.33337 19.8333 2.33337H16.3333ZM17.5 4.66671V14H22.1667V7.00004C22.1667 6.38171 21.9205 5.78787 21.483 5.35037C21.0455 4.91287 20.4517 4.66671 19.8333 4.66671H17.5ZM12.8333 3.50004C12.8333 2.85604 12.3107 2.33337 11.6667 2.33337H8.16667C6.92883 2.33337 5.74116 2.8257 4.86616 3.7007C3.99116 4.5757 3.5 5.76337 3.5 7.00004V8.16671C3.5 8.81187 4.0215 9.33337 4.66667 9.33337H11.6667C12.3107 9.33337 12.8333 8.81187 12.8333 8.16671V3.50004ZM10.5 4.66671H8.16667C7.54717 4.66671 6.9545 4.91287 6.517 5.35037C6.07833 5.78787 5.83333 6.38171 5.83333 7.00004H10.5V4.66671Z" fill="#111111" />
</svg>
